<svg xmlns="http://www.w3.org/2000/svg" xml:space="preserve" width="348.88" height="348.93" viewBox="0 0 92.31 92.32"><path fill-opacity=".09" d="m9.93 84-.71.03-.36.37-.63.67-.1-.1-.22-.09q-.13-.03-.16-.06l-.04-.03-.2-.23-.07-.03h-.05l-.05.07-.04.06a.3.3 0 0 0-.06.21v.05h-.01q-.05.02-.08.06l-.01.13.02.08.08.2c.05.14-.02.02 0 .43V86q-.04.09.02.1l-.54.58-.09.1q-.14.13-.11.17 0 .04.04.06l.98.01c.12.21.14.24.16.32l.08.14q.02.03.04.03h.02l.1.21q.04.13.11.24l.1.15.02.03-2.07 2.58-.1.15q-.01.06.04.07.04.03.08 0l.17-.12 1.46-1.13v.02q-.04.09.03.15.06.06.1.06.08 0 .18-.07l.06-.04.1-.06q.05-.03.06-.1l.04-.1.15-.41.42-.33v.75a1 1 0 0 1-.07.37l-.04.03-.06.08-.02.04-.02.14c0 .05.04.14.06.15q.02.02.13.02l.1-.01.08-.08.04-.04.04-.03q.05-.04.06-.13v-.24l.01-.03q.04-.07.04-.19l.02-.24.05.3h.17l.16-.48-.08-.25-.14.42-.08-.45.06-.3.03-.24.17-.13h.04v-.03l.05-.04v.07h.45v-.13l.3.27q.04.03.04.07v.07l-.03.1-.11.1v.46l-.03.07a.2.2 0 0 1-.08.1l-.1.1v.11l.06.06.1.02q.07 0 .14-.06l.08.08h.15v-.2h-.08l.03-.08.04-.13.15-.47.02-.04.06.07v.58l-.09.08h-.08v.2h.15l.17-.2v-.23l.04.02.07-.06.09-.09v.54h.18v-.92q.03-.08.04-.03l.03.15c.02.09.02.1.02.23l.04.4h-.1v.17h.07v.03q0 .06.02.08.02.06.1.1.06.04.1.04l.14-.09q.07-.06.03-.16h.03v-.16h-.06l-.03-.33a9 9 0 0 1-.04-.88v-.14a1 1 0 0 0-.13-.38l-.02-.04v-.1l.01-.12.02-.12h.14v-.17h-.15v-.01l-.02-.08q0-.09-.03-.1l-.06-.13-.05-.12 1.33-1.02.08-.07q.1-.06.08-.1 0-.03-.02-.05l-.08-.03-2.85-.01s1.48-1.3 1.5-1.4q0-.06-.02-.09L11.5 84zm-.61.16 1.93.01-1.47 1.35-.04.08c0 .01 0 .08.09.08h2.83l-1.23.96-.17-.2c-.1-.06-.5-.34-.85-.25l-.12.04c-.07.02-.14.02-.4.03l-.26-.02-.23-.08-.32-.18-.08-.04-.17-.12-.14-.14.01-.02q.04-.03 0-.1a1 1 0 0 0-.22-.23l-.12-.1-.02-.02zm-1.88.4q.03-.01.07.04l.16.19c.06.07.1.08.21.11a.5.5 0 0 1 .34.19l-.93.98q0-.02-.02-.02-.03.01-.01-.04v-.24a1 1 0 0 1 .02-.3q0-.05-.07-.21c-.05-.13-.05-.14-.05-.18q0-.1.03-.11.02-.04.07 0h.02v-.06a.3.3 0 0 1 .04-.24l.04-.06q0-.04.06-.05zm.4.46.05.05.08.07.03.02-.06-.12h-.03zm.48.2q.05.07.15.14.1.06.12.1.1.12.1.16l-.04.04a2 2 0 0 0 .37.33l.05.01.06.03a2 2 0 0 0 .49.24h.07c.04.02.04.02.24.01a2 2 0 0 0 .49-.06c.1-.04.18-.04.33 0l.23.1q.26.11.36.24l.07.1-.79.6v-.02h-.29v.24l-.7.54v-.78H9.5v.9l-.58.44-.05-.32h.07v-.15H8.8v-.29h.14v-.15h-.15v-.03l.2-.25h.07l.09.07v.14l-.1.07h-.06v.15h.09l.07.08v.14l-.07.07h-.09v.15h.13l.17-.17v-.25l-.1-.08v-.02l.1-.09v-.24l-.16-.17H9.1l.21-.27q.02-.03 0-.08l-.05-.04-1.79-.01-.15-.41q-.03.03-.01-.04v-.1zm-1.03 1.1v.15l.03.01h.02l.04.14.07.22h-.64zm4.2.48.04.08.06.16q.03.03.03.08l.02.12h-.46v.16h.47v.11q-.02 0-.02.06v.17l.02.06c.1.2.13.33.13.49v.28l.04.6.03.34h-.29l-.02-.21v-.16c0-.13-.01-.16-.04-.32q-.04-.22-.07-.21l-.02.03v.02-.1h-.18v.52l-.08.1q-.08.09-.1.07l-.01-.06v-.43l-.04-.04v-.29l.01-.18-.04-.05v-.01l-.13-.31h-.15l.15.38h.1q0 .08-.08.32h-.15v.15h.08l-.24.74-.06-.06v-.58l.08-.1h.09v-.15h-.14l-.03.03.01-.1c.02-.07.01-.09-.06-.15l-.37-.33-.04.02-.14.06H9.8l.53-.41v.56h.15v-.43h.14v-.16h-.13v-.1l.25-.18.09.08v.12l-.08.08h-.07v.16h.13l.17-.16v-.26l-.12-.12zm-3.92.21 1.5.01-.01.02-.17.2h-.24v.3l-.3.36v-.66H8.2v.87l-.1-.14-.1-.2-.04-.1-.13-.25v.02q0 .03-.02.02l-.07-.14a1 1 0 0 0-.16-.3m4.43.23.27.57v.45h.15v-.5l-.25-.52zm.52 0-.15.32.08.18.24-.5zm-2.83 0v.16h.44v-.16zm-2.44 0v1.02h.17v-1.02zm4.16.2v.82h.17v-.82zm-1.72.23v.15h.2v-.15zm-1.04.14v.45h.02q0 .08-.04.17l-.12.45-.4.32.07-.43v-.39l.1-.12h.08v-.09zm1.41.26q.02 0 .03.02l.03.02h-.16l.03-.02zm-2.6.04v.15h.45v-.15zm1.24.15h.12q.04.01.04.13l.02.2-.34.27.01-.03zm2.27.07v.36l-.1-.1zm-2.8.08a3 3 0 0 1-.1.81l-1.46 1.12s.82-1 1.55-1.93m1.23 0-.08.45-.05-.28H9.2zm2.73.15v1.12h.17v-1.12zm.22 0v.17h.5v-.17zm-2.3.02-.13.8-.17-.47H9.6l.25.77h.2l.17-1.1zm-.92.04.12.69-.04.32q0 .13-.04.19v.27l-.03.08q-.01.03-.07.07l-.04.04-.07.07H8.8q-.04.01-.06-.06l-.03-.08q0-.07.03-.13l.01-.04q0-.03.06-.07c.05-.02.05-.03.08-.16a3 3 0 0 0 .04-1.02zm3.22.42v.16h.22v-.16zm-3.92.12-.17.47-.05.09q-.03.05-.1.06l-.07.04q-.1.07-.18.06l-.1-.08.02-.1.02-.05.13-.1h.03c.04-.01.04 0 .07-.08zm1.9.1v.24l.09.08q-.07.05-.12.06-.08 0-.12-.03l-.03-.03v-.1l.09-.09a.2.2 0 0 0 .09-.1zm1.2.41h.34v.02l.02.07-.04.05-.08.06-.06.03q-.04 0-.11-.07l-.05-.06q-.03-.03-.01-.08z"/><path fill="#0094ff" d="M75.19.63c-8.18 0-15.01 5.51-16.72 12.9H4.1s-2.32-.3-2.35 3.94S8 21.05 8 21.05l15.14-.01c-1.84.05-1.54 3.3-2.26 7.79-2.03-.28-4.75-.84-5.12-.31-6.81 9.55.36 10.14 9.92 10.63-5.6 7.13-9.51 8.96-17.21 13.16l-.1 7.5c3.47 1.53 5.73.59 9.37-1.83l-2.87 19.67c-.55 3.76 8.24 5.1 8.75 1.6l3.16-21.89s1.46 4.25 5.68 3.68c-.58 10.33-6.09 19.46 5.56 21.44 8.64 1.46 14.52 1.64 24.3 1.71 1.74-1.16 2.9-2.72 4.1-4.38.71-2.7 2.56-15.2 2.25-18.28-.41-4-4.34-5.58-4.33-5.7s1.72.02 3.15-2.72c1.46-2.8 1.9-10.2 1.54-11.82-.42-1.87-1.32-2.22-1.32-2.27 0-.06 2.16.35 3.06-.05l.9-.72-.12 47.69s.83 4.97 3.68 4.97 3.64-2.13 3.64-2.13l-.06-55.03A16.6 16.6 0 0 0 91.66 17.4C91.66 8.3 84.64.63 75.19.63M74.82 10c4.14 0 7.5 3.39 7.5 7.57 0 2.7-1.41 5.07-3.53 6.4 0 0 1.31-7.71-1.33-9.43-2.9-1.9-8.98-1.01-8.98-1.01A7.5 7.5 0 0 1 74.82 10m-3.4 11.02.02 3.3a7.6 7.6 0 0 1-3.3-3.3zm-12.88 0 2.5 6.61s-3.38-.38-6.79-.9c-6.29-.95-14.5-2.4-16.02-2-3.6.96-3.52 4.42-3.35 7a6 6 0 0 0-3.33-1.42c.26-1.5.8-3.97.86-5.92.1-3.36-1.56-3.35-1.56-3.35zM36.8 34.25c.36.24.91.43 1.4.55.55.15 1.04.12 1.68.22a5.5 5.5 0 0 0-2.11 2.05c-.8 1.34-1.04 2.96-1.3 4.52-.2 1.33-.5 2.79-.56 4.2-.03 1.14-.05 2.49.23 3.41 0 0 .97 1.83 3.67 4.03-2.35-.07-3.45.85-4.83 2.31-.72-3.64-3.8-5.8-6.2-6.98l4.27-2.5c.72-1.05 1.86-2.43 2.57-3.76.52-.97 1.03-1.97 1.24-3.05.3-1.64.64-3.77-.06-5m9.83 9.89c.26 0 2.95.34 6.13.78 2.02.3 5.61.84 5.96.92.08.02.05.17.04.25s-.09.2-.17.21a93 93 0 0 1-6.06-.68 69 69 0 0 1-6.01-1.06s-.1-.06-.09-.2c0-.1-.03-.19.2-.22m-3.25 16.91c2.41.41 1.81 2.81 1.81 2.81l-4.5-.71s.47-2.47 2.7-2.1m11.4 2.26c.7.13 2.37.5 2.37.5 1.38.32 1.18.42 1.06 1.37l-3.57-.5zm-15.1 7.76 4.4 1.16s.2 3.85-3.36 2.62c-2.45-.85-1.03-3.78-1.03-3.78m13.18 2.5 4.95.66s-.62 3.18-3.03 2.88c-3.4-.43-1.92-3.53-1.92-3.53"/><path d="M4.25 92.32C2.62 92.32 0 90.57 0 87.58l.02-70.32c0-1.6 1.48-4.6 4.9-4.6l53.02.03C61.8 1 71.77 0 74.81 0c11.78 0 17.5 9.82 17.5 17.46 0 8.48-5.6 15.05-12.55 16.98v53.2a5.1 5.1 0 0 1-4.46 4.68zm73.8-74.66c0-2.02-1.8-3.37-3.36-3.37h-5.61c-1.14 2.27-1.16 3.5-.45 5.73h3.7l.08 65.02h-.32l4.76 4.88s.96-.55 1.2-2.29zM38.2 83.4c-4.98-.23-9.26-3.84-8.55-9l1.77-12.8c-1.73-.09-3.4-.46-4.22-2.1 0 0-2.27 18.44-2.6 19.65-.53 2.02-2.61 3.4-6.05 2.93-3.57-.49-4.81-3.13-4.41-5.7L16.7 59.9c-1.97 1.18-3.12 1.5-4.38 1.46a8 8 0 0 1-3.4-.8v22.89zM65 78.38l1.41 1.43s-.52 2.11-1.98 3.58l6.3.06V37.08c-.68.68-2.27.3-3.34.14l-29-4.15c-1.6-.23-2.22-1.79-1.78-4.2.4-2.27 1.85-2.68 3.37-2.46l21.93 3.15a17.6 17.6 0 0 1-4.25-7.93l-28.08.01c.31 0 1.36 1.34 1.15 2.7l-1.14 7.29c8.32.87 6.75 7.42 2.23 13.19-.05.06-5.3-5.11-5.3-5.2s.74-.96.75-1.17c-.61-.48-1.73-.53-2.52-.59l-7.8-7.77 5.41.67.77-6c.19-1.44.19-2.34 1.01-3.1l-15.2-.08.01 29.64c0 .62 3.08-1.23 6.38-3.43a38 38 0 0 0 9.18-8.3 359 359 0 0 0-8.04-.77c-.88-.13-3.12-.61-3.97-3-.37-1.03-.2-3.78.57-5.17a4.4 4.4 0 0 1 2.69-2.03l1.73 1.79s-1.17-.62-2.4.42c-.7.58-.9 1.27-1.06 2.5-.2 1.71.16 2.7 1.37 3.47.68.43 9.49 1.11 9.49 1.11l1.72 1.7-.06.14c-3 4.12-6.8 7.4-10.6 9.77-3.51 2.2-5.76 2.72-7.04 4v5.05c.67.71 1.56 1.16 3.53 1.22 1.83.05 3.85-1.52 6.46-2.89l-3.03 19.51c-.47 3.02.98 3.7 3.03 4.07 3.53.64 4.06-1.7 4.15-2.37l3-22.85c1.3 1.16 2.22 2.95 2.75 3.65.24.32.58.77 2 1 1.43.25 2.1-.02 2.65-.52L31.32 74.5c-.59 4.18 2.78 6.22 4.19 6.6 1.86.5 11.66 2.33 15.72 2.34h10.38c1.46-.81 3-2.27 3.4-5.06M53.2 66.19s4.91.7 6.5.86c.13-1.47.6-3.23-.29-4.05-1.04-.96-3.4-1.15-6.02-1.56l-.63 4.28-12.11-12.04s17.6 2.25 19.58 2.69 7.56 1.18 6.74 7.74c0 0-.53 7.23-1.92 13.9zm-2.03 11.1c.24-1.99.68-5.24.68-5.24s5.21.77 7.05.97c-.2 1.33-.55 3.66-1.25 4.38-.87.9-3.31.37-6.48-.12m5.19-1.12c.25-.14.42-.94.59-1.72l-3.64-.52c-.15.71-.18 1.19-.28 1.9 1.43.24 3.08.47 3.33.34M38.38 73.9c-.03-.38.16-3.69.24-3.74.1-.06 6.3.74 6.42.9.14.19-.38 3.5-.7 5.28-.2-.01-5.8-.26-5.96-2.44m4.57.5c0-.11.24-1.92.24-1.92s-2.05-.3-3.08-.42c-.05.1-.18 1.5-.06 1.6.51.35 2.3.74 2.9.73m-3.47-10.22c.21-1.44.4-2.92 1.52-3.76 1.03-.78 4.66-.06 5.6.07l-.65 4.62zm5.18-2.24a12 12 0 0 0-2.61-.17c-.34.13-.48.64-.6 1.06l3.06.4zM28.64 48.58c.63-.7 1.33-1.5 3.18-3.76l1.23 1.23-1.79 2.17c2.18 1.56 3.95 3.47 4.55 4.65.47-.3 2-.83 2.49-.73a5.4 5.4 0 0 1-2.16-2.94s3.14 3.1 4.5 4.48c-2.14-.05-3.95.22-5.7 1.98-.32-3.32-4.69-6.06-6.3-7.08m31.29 5.9A167 167 0 0 1 42.63 52c-5.71-1.24-5.4-4.02-4.65-9.05.88-5.87 1.8-6.92 5.73-6.97 1.05-.01 19.48 1.79 22.4 3.92 1.68 1.22 1.7 3.9.93 8.46-.88 5.15-1.91 6.48-7.11 6.12m-.8-6.53c.74-.15 1.18-.64 1.31-1.87.12-1.13-.2-1.7-1.36-1.9-3.28-.56-9.22-1.56-12.7-1.7-1.57-.06-1.51.75-1.62 1.5-.1.71-.29 1.75 1.08 2.12 1.58.42 11.16 2.29 13.28 1.85m7.38-30.5c0-2.88 2.4-8.22 8.3-8.22a8.23 8.23 0 0 1 8.27 8.23c0 4.5-2.86 6.48-3.41 6.8l.07 8.41c.9 0 10.99-3.87 10.99-15.21 0-9.55-8.26-15.87-15.92-15.87-7.63 0-15.9 6.22-15.9 15.87 0 11.72 10.5 15.47 11.77 15.47l.05-8.14c-2.71-1.44-4.22-4.1-4.22-7.33m4.24 4.13h-1.17c.05.21.9 1.12 1.17 1.2zm10.69-4.03a6.6 6.6 0 0 0-11.06-4.91h4.51c1.99 0 4.78 1.65 4.78 4.75v4.66a6.4 6.4 0 0 0 1.77-4.5M57.6 14.3H5.74c-1.32 0-1.55-.05-2.56.56l5.03 5.11 49.21.06c-.2-.8-.33-4.42.18-5.73"/></svg>